<?xml version="1.0" encoding="UTF-8"?><svg id="Layer_1" xmlns="http://www.w3.org/2000/svg" viewBox="0 0 45.81 9.92"><defs><style>.cls-1{fill:#7950f2;}.cls-1,.cls-2{fill-rule:evenodd;}.cls-2{fill:#1a1c37;}</style></defs><path class="cls-1" d="M4.2,7.53c.25,.07,.49,.11,.75,.11,.9,0,1.7-.45,2.18-1.12,.24-.33,.58-.51,.98-.51h.13c.41,0,.75,.21,.95,.57,.19,.35,.17,.75-.05,1.09-.52,.78-1.3,1.29-2.43,1.29-1.05,0-2-.47-2.65-1.22-.04-.05-.05-.11,0-.15,.03-.05,.09-.08,.15-.06Zm-1.41,1.89c.65,.32,1.39,.5,2.16,.5h.05c.07,0,.13-.05,.14-.12s-.03-.13-.08-.15c-3.81-1.47-3.75-7.37-.11-7.37,.88,0,1.68,.42,2.18,1.12,.24,.33,.58,.5,.98,.5h.09c.41,0,.75-.21,.95-.56s.17-.75-.05-1.09c-.25-.38-.55-.73-.9-1.03C7.35,.46,6.2,0,4.95,0,2.22,0,0,2.22,0,4.95,0,6,.32,6.96,.87,7.76H.87c.48,.7,1.13,1.27,1.92,1.65Z"/><path class="cls-2" d="M12.05,4.96c0-1.47,.94-2.56,2.44-2.56,1.13,0,1.99,.55,2.29,1.66,0,.03,0,.06-.02,.08,0,.03-.04,.04-.07,.04h-1.06s-.08-.03-.08-.06c-.17-.48-.56-.7-1.06-.7-.9,0-1.24,.73-1.24,1.55s.34,1.55,1.24,1.55c.52,0,.88-.21,1.06-.7,0-.04,.05-.06,.08-.06h1.06s.06,0,.07,.03c.02,.03,.03,.06,.02,.08-.31,1.07-1.19,1.66-2.29,1.66-1.51,0-2.44-1.09-2.44-2.56Zm6.43,.46c.1,.66,.58,1.09,1.27,1.09,.47,0,.84-.19,1.06-.62,0-.03,.04-.05,.08-.05h1.06s.06,0,.08,.04c.02,.02,.02,.05,0,.08-.33,1.02-1.23,1.56-2.28,1.56-1.5,0-2.48-1.09-2.48-2.56s.96-2.56,2.48-2.56,2.42,1.02,2.42,2.45c0,.17,0,.33-.04,.5,0,.04-.05,.08-.08,.08h-3.57Zm4.49,1.93V.92s.05-.09,.09-.09h.99s.08,.05,.08,.09V7.35c0,.06-.04,.09-.08,.09h-.99s-.09-.04-.09-.09Zm2.3,0V.92s.04-.09,.08-.09h.99c.06,0,.09,.05,.09,.09V7.35c0,.06-.04,.09-.09,.09h-.99s-.08-.04-.08-.09Zm1.97-2.39c0-1.47,.93-2.56,2.43-2.56,1.13,0,2,.55,2.29,1.66,0,.03,0,.06,0,.08-.02,.03-.05,.04-.08,.04h-1.06s-.07-.03-.08-.06c-.17-.48-.56-.7-1.06-.7-.9,0-1.24,.73-1.24,1.55s.35,1.55,1.24,1.55c.52,0,.88-.21,1.06-.7,.02-.04,.05-.06,.08-.06h1.06s.06,0,.08,.03c.02,.03,.02,.06,0,.08-.3,1.07-1.19,1.66-2.29,1.66-1.5,0-2.43-1.09-2.43-2.56Zm9.13-1.93v-.46s.05-.08,.09-.08h1s.08,.04,.08,.08V7.35c0,.06-.04,.09-.08,.09h-1s-.09-.04-.09-.09v-.47c-.41,.42-.99,.64-1.58,.64-1.43,0-2.34-1.22-2.34-2.58s.91-2.54,2.35-2.54c.59,0,1.17,.21,1.57,.63Zm6.06,2.99c0,1.05-1,1.51-1.92,1.51-.98,0-2.04-.55-2.09-1.63,0-.03,0-.05,.03-.07s.04-.03,.07-.03h1.02s.08,.04,.09,.08c.04,.42,.48,.63,.87,.63,.31,0,.79-.09,.79-.49,0-.82-2.78-.34-2.78-2.16,0-1.02,1.04-1.47,1.93-1.47,1.03,0,1.88,.54,1.93,1.63,0,.02,0,.04-.02,.06s-.04,.03-.07,.03h-.99s-.08-.03-.08-.08c-.04-.44-.41-.62-.81-.62-.29,0-.73,.08-.73,.45,0,.85,2.7,.37,2.76,2.15Zm1.05-2.55h-.47s-.09-.04-.09-.08v-.81s.05-.08,.09-.08h.47V1.38c0-.06,.05-.09,.09-.09h1s.08,.04,.08,.09v1.1h1.07c.06,0,.09,.04,.09,.08v.81s-.04,.08-.09,.08h-1.07v2.56c0,.34,.14,.42,.47,.42h.6c.06,0,.09,.04,.09,.08v.82c0,.06-.04,.09-.09,.09h-.78c-.94,0-1.47-.44-1.47-1.42V3.46Zm-24.97,.98h2.46c-.07-.65-.6-1.03-1.25-1.03s-1.08,.42-1.21,1.03Zm17.87,.52c0-.81-.51-1.53-1.36-1.53s-1.37,.69-1.37,1.51,.51,1.55,1.37,1.55,1.36-.72,1.36-1.53Z"/></svg>